<svg width="400" height="400" viewBox="0 0 400 400" fill="none" xmlns="http://www.w3.org/2000/svg">
<circle cx="200" cy="200" r="200" fill="#4682DA"/>
<path d="M246.517 29.8965C323.274 49.6106 380.001 119.269 380.001 202.177C380.001 300.407 300.369 380.039 202.139 380.039C164.341 380.039 129.298 368.246 100.485 348.143C114.671 351.786 129.541 353.725 144.863 353.725C243.094 353.725 322.725 274.093 322.726 175.862C322.726 115.43 292.584 62.0389 246.517 29.8965Z" fill="#EFEFEF"/>
<g clip-path="url(#clip0_102_8531)">
<path d="M153.006 53.8541L146.74 63.0704L152.041 72.9222C152.331 73.4565 152.457 74.0646 152.401 74.6699C152.346 75.2752 152.112 75.8505 151.73 76.3231C151.347 76.7957 150.834 77.1444 150.253 77.3251C149.673 77.5059 149.052 77.5105 148.469 77.3386L137.815 74.1603L130.171 82.2414C129.752 82.6801 129.212 82.9848 128.62 83.1174C128.028 83.2499 127.41 83.2042 126.843 82.9861C126.277 82.768 125.788 82.3872 125.438 81.8917C125.087 81.3962 124.892 80.8081 124.875 80.2015L124.549 69.0166L114.514 64.1679C113.969 63.9036 113.513 63.4844 113.204 62.9626C112.895 62.4407 112.746 61.8395 112.777 61.2338C112.808 60.6282 113.016 60.045 113.377 59.5571C113.737 59.0692 114.233 58.6983 114.802 58.4905L125.257 54.7653L126.706 43.6852C126.784 43.0817 127.039 42.5149 127.439 42.0569C127.839 41.5988 128.367 41.2701 128.955 41.1127C129.542 40.9552 130.164 40.976 130.739 41.1725C131.315 41.369 131.82 41.7323 132.188 42.2162L138.982 51.0878L149.898 49.0867C150.496 48.9795 151.112 49.0511 151.67 49.2926C152.227 49.534 152.701 49.9346 153.032 50.4442C153.362 50.9537 153.535 51.5495 153.529 52.1569C153.523 52.7643 153.337 53.3564 152.996 53.8588L153.006 53.8541Z" fill="#DDD83B"/>
</g>
<g clip-path="url(#clip1_102_8531)">
<path d="M82.0062 135.033L76.2627 143.481L81.122 152.512C81.3878 153.002 81.5025 153.559 81.4517 154.114C81.4008 154.669 81.1866 155.197 80.8362 155.63C80.4858 156.063 80.0148 156.383 79.4829 156.548C78.9509 156.714 78.3817 156.718 77.8473 156.561L68.0808 153.647L61.0744 161.055C60.69 161.457 60.1953 161.736 59.6524 161.858C59.1096 161.979 58.5429 161.937 58.0238 161.737C57.5047 161.538 57.0564 161.188 56.7353 160.734C56.4142 160.28 56.2346 159.741 56.2192 159.185L55.9204 148.932L46.7223 144.487C46.2219 144.245 45.8041 143.861 45.5208 143.383C45.2376 142.904 45.1016 142.353 45.1297 141.798C45.1579 141.243 45.349 140.708 45.6791 140.261C46.0093 139.814 46.4639 139.474 46.9862 139.283L56.5695 135.868L57.8979 125.712C57.9689 125.158 58.2028 124.639 58.5698 124.219C58.9368 123.799 59.4204 123.498 59.9591 123.353C60.4978 123.209 61.0673 123.228 61.5951 123.408C62.1229 123.589 62.5852 123.922 62.9233 124.365L69.1504 132.497L79.1572 130.663C79.7053 130.565 80.2702 130.63 80.7812 130.852C81.2921 131.073 81.7264 131.44 82.0296 131.907C82.3327 132.374 82.4913 132.921 82.4855 133.477C82.4796 134.034 82.3096 134.577 81.9967 135.037L82.0062 135.033Z" fill="#DDD83B"/>
</g>
<g clip-path="url(#clip2_102_8531)">
<path d="M112.004 87.1386L108.871 91.7468L111.521 96.6727C111.666 96.9398 111.729 97.2439 111.701 97.5465C111.673 97.8492 111.557 98.1368 111.365 98.3731C111.174 98.6094 110.917 98.7837 110.627 98.8741C110.337 98.9645 110.027 98.9668 109.735 98.8809L104.408 97.2917L100.586 101.332C100.377 101.552 100.107 101.704 99.8107 101.77C99.5146 101.836 99.2055 101.814 98.9224 101.705C98.6392 101.596 98.3947 101.405 98.2195 101.157C98.0444 100.91 97.9464 100.616 97.938 100.312L97.7751 94.7199L92.7579 92.2955C92.485 92.1634 92.257 91.9538 92.1026 91.6928C91.9481 91.4319 91.8739 91.1313 91.8892 90.8285C91.9046 90.5256 92.0088 90.2341 92.1889 89.9901C92.369 89.7462 92.617 89.5607 92.9018 89.4568L98.1291 87.5942L98.8537 82.0541C98.8924 81.7524 99.02 81.469 99.2202 81.24C99.4204 81.011 99.6842 80.8466 99.978 80.7679C100.272 80.6892 100.582 80.6996 100.87 80.7978C101.158 80.8961 101.41 81.0777 101.595 81.3197L104.991 85.7555L110.45 84.7549C110.749 84.7013 111.057 84.7371 111.335 84.8578C111.614 84.9786 111.851 85.1789 112.016 85.4336C112.182 85.6884 112.268 85.9863 112.265 86.29C112.262 86.5937 112.169 86.8897 111.998 87.141L112.004 87.1386Z" fill="#DDD83B"/>
</g>
<g clip-path="url(#clip3_102_8531)">
<path d="M84.0046 87.3906L79.3054 94.3029L83.2812 101.692C83.4987 102.092 83.5926 102.549 83.5509 103.002C83.5093 103.456 83.3341 103.888 83.0474 104.242C82.7607 104.597 82.3753 104.858 81.9401 104.994C81.5048 105.129 81.0391 105.133 80.6019 105.004L72.6111 102.62L66.8786 108.681C66.5641 109.01 66.1593 109.239 65.7152 109.338C65.271 109.437 64.8074 109.403 64.3827 109.24C63.958 109.076 63.5912 108.79 63.3284 108.419C63.0657 108.047 62.9188 107.606 62.9062 107.151L62.6617 98.7625L55.136 95.126C54.7266 94.9277 54.3847 94.6133 54.153 94.222C53.9212 93.8306 53.8099 93.3796 53.833 92.9254C53.856 92.4712 54.0124 92.0338 54.2825 91.6679C54.5526 91.302 54.9246 91.0237 55.3519 90.868L63.1928 88.074L64.2797 79.7639C64.3377 79.3113 64.5291 78.8862 64.8294 78.5427C65.1297 78.1991 65.5254 77.9526 65.9661 77.8345C66.4069 77.7164 66.8728 77.7321 67.3046 77.8794C67.7365 78.0268 68.1147 78.2993 68.3913 78.6622L73.4863 85.3159L81.6737 83.8151C82.1221 83.7346 82.5843 83.7884 83.0024 83.9695C83.4204 84.1506 83.7757 84.451 84.0238 84.8332C84.2718 85.2153 84.4016 85.6622 84.3968 86.1177C84.392 86.5733 84.2529 87.0173 83.9968 87.3942L84.0046 87.3906Z" fill="#DDD83B"/>
</g>
<path d="M200 131.25C185.166 131.25 170.666 135.649 158.332 143.89C145.999 152.131 136.386 163.844 130.709 177.549C125.032 191.253 123.547 206.333 126.441 220.882C129.335 235.43 136.478 248.794 146.967 259.283C157.456 269.772 170.82 276.915 185.368 279.809C199.917 282.703 214.997 281.218 228.701 275.541C242.406 269.864 254.119 260.251 262.36 247.918C270.601 235.584 275 221.084 275 206.25C274.977 186.366 267.068 167.302 253.008 153.242C238.948 139.182 219.884 131.273 200 131.25ZM235.672 179.422L204.422 210.672C203.841 211.253 203.152 211.713 202.393 212.027C201.634 212.342 200.821 212.503 200 212.503C199.179 212.503 198.366 212.342 197.607 212.027C196.848 211.713 196.159 211.253 195.578 210.672C194.997 210.091 194.537 209.402 194.223 208.643C193.908 207.884 193.747 207.071 193.747 206.25C193.747 205.429 193.908 204.616 194.223 203.857C194.537 203.098 194.997 202.409 195.578 201.828L226.828 170.578C227.409 169.997 228.098 169.537 228.857 169.223C229.616 168.908 230.429 168.747 231.25 168.747C232.071 168.747 232.884 168.908 233.643 169.223C234.402 169.537 235.091 169.997 235.672 170.578C236.253 171.159 236.713 171.848 237.027 172.607C237.342 173.366 237.504 174.179 237.504 175C237.504 175.821 237.342 176.634 237.027 177.393C236.713 178.152 236.253 178.841 235.672 179.422ZM175 112.5C175 110.842 175.659 109.253 176.831 108.081C178.003 106.908 179.592 106.25 181.25 106.25H218.75C220.408 106.25 221.997 106.908 223.169 108.081C224.342 109.253 225 110.842 225 112.5C225 114.158 224.342 115.747 223.169 116.919C221.997 118.092 220.408 118.75 218.75 118.75H181.25C179.592 118.75 178.003 118.092 176.831 116.919C175.659 115.747 175 114.158 175 112.5Z" fill="#EFEFEF"/>
<defs>
<clipPath id="clip0_102_8531">
<rect width="48" height="48" fill="white" transform="translate(105.001 44.4234) rotate(-15)"/>
</clipPath>
<clipPath id="clip1_102_8531">
<rect width="44" height="44" fill="white" transform="translate(38.0005 126.388) rotate(-15)"/>
</clipPath>
<clipPath id="clip2_102_8531">
<rect width="24" height="24" fill="white" transform="translate(88.0005 82.4234) rotate(-15)"/>
</clipPath>
<clipPath id="clip3_102_8531">
<rect width="36" height="36" fill="white" transform="translate(48.0002 80.3175) rotate(-15)"/>
</clipPath>
</defs>
</svg>
